<?xml version="1.0" encoding="utf-8"?>
<!-- Generator: Adobe Illustrator 23.1.0, SVG Export Plug-In . SVG Version: 6.00 Build 0)  -->
<svg version="1.1" id="Layer_1" xmlns="http://www.w3.org/2000/svg" xmlns:xlink="http://www.w3.org/1999/xlink" x="0px" y="0px"
	 viewBox="0 0 8.6 9.4" style="enable-background:new 0 0 8.6 9.4;" xml:space="preserve">
<desc>Created by EvoPdf</desc>
<g>
	<g transform="matrix(1,0,0,1,0,0)">
	</g>
	<g transform="matrix(1,0,0,1,0,0)">
	</g>
	<g transform="matrix(1,0,0,1,0,0)">
	</g>
	<g transform="matrix(1,0,0,1,0,0)">
	</g>
	<g transform="matrix(1,0,0,1,8,8)">
	</g>
	<g transform="matrix(1,0,0,1,8,8)">
	</g>
	<g transform="matrix(1,0,0,1,8,8)">
	</g>
	<g transform="matrix(1,0,0,1,8,8)">
	</g>
	<g transform="matrix(1,0,0,1,8,8)">
	</g>
	<g transform="matrix(1,0,0,1,0,0)">
	</g>
	<g transform="matrix(1,0,0,1,0,0)">
	</g>
	<g transform="matrix(1,0,0,1,0,0)">
	</g>
	<g transform="matrix(1,0,0,1,0,0)">
	</g>
	<g transform="matrix(1,0,0,1,8,8)">
	</g>
	<g transform="matrix(1,0,0,1,0,0)">
	</g>
	<g transform="matrix(1,0,0,1,0,0)">
	</g>
	<g transform="matrix(1,0,0,1,0,0)">
	</g>
	<g transform="matrix(1,0,0,1,0,0)">
	</g>
	<g transform="matrix(1,0,0,1,0,0)">
	</g>
	<g transform="matrix(1,0,0,1,0,0)">
	</g>
</g>
<g>
	<path d="M8.5,1.9C8.5,1.9,8.5,1.9,8.5,1.9L7.2,0.2C7.1,0.1,7,0,6.8,0H1.7C1.6,0,1.5,0.1,1.4,0.2L0.1,1.9c0,0,0,0,0,0C0,2,0,2,0,2.1
		v6c0,0.7,0.6,1.3,1.3,1.3h6c0.7,0,1.3-0.6,1.3-1.3v-6C8.5,2,8.5,2,8.5,1.9z M1.9,0.9h4.7l0.6,0.9h-6L1.9,0.9z M7.3,8.5h-6
		c-0.2,0-0.4-0.2-0.4-0.4V2.6h6.8v5.5C7.7,8.3,7.5,8.5,7.3,8.5z"/>
	<path d="M6,3.4c-0.2,0-0.4,0.2-0.4,0.4c0,0.7-0.6,1.3-1.3,1.3S3,4.5,3,3.8c0-0.2-0.2-0.4-0.4-0.4S2.1,3.6,2.1,3.8
		C2.1,5,3.1,6,4.3,6s2.1-1,2.1-2.1C6.4,3.6,6.2,3.4,6,3.4z"/>
</g>
</svg>
